<svg width="1500" height="1500" viewBox="0 0 1500 1500" fill="none" xmlns="http://www.w3.org/2000/svg">
<rect width="1500" height="1500" rx="750" fill="#3B82F6"/>
<path d="M732.849 121.032H776.666L799.201 122.284L822.361 124.788L849.278 128.544L866.179 131.048L881.202 133.552L899.354 137.933L915.003 142.315L923.767 144.819L951.935 153.582L967.584 159.216L988.867 167.354L1000.13 172.361L1018.29 181.125L1038.32 191.14L1053.34 199.278L1063.98 205.537L1075.25 211.797L1085.27 218.057L1095.91 224.942L1104.67 231.202L1110.3 234.958L1118.44 241.217L1124.07 245.599L1130.96 250.607L1139.1 256.866L1147.24 263.752L1156 270.638L1163.51 277.523L1170.4 283.157L1176.03 288.79L1181.04 293.172L1190.43 301.936L1197.31 308.821L1201.69 313.829L1208.58 320.715L1214.21 327.6L1221.72 335.738L1227.36 342.623L1234.87 351.387L1240.5 358.272L1246.76 366.41L1253.02 373.921L1263.04 387.693L1269.3 395.83L1276.18 405.846L1283.07 416.487L1287.45 423.372L1289.33 426.502L1295.59 437.144L1301.85 448.411L1307.48 458.426L1314.99 473.45L1318.12 480.961L1323.13 490.976L1328.14 502.244L1335.02 519.771L1340.66 534.168L1345.04 546.687L1348.17 556.703L1354.43 576.107L1358.81 593.008L1361.94 603.65L1365.07 618.047L1368.2 633.696L1371.33 650.597L1373.83 666.872L1375.09 674.384L1377.59 706.308L1378.84 723.835L1379.47 744.492V762.018L1378.22 793.943L1376.96 807.088L1373.83 832.752L1369.45 860.921L1365.7 880.325L1360.69 901.608L1357.56 912.876L1355.05 922.891L1351.3 936.036L1348.17 946.052L1340.66 968.586L1337.53 977.35L1333.15 987.991L1329.39 998.632L1321.88 1015.53L1316.87 1025.55L1311.86 1034.94L1307.48 1044.33L1303.1 1051.84L1299.34 1059.35L1291.83 1071.87L1286.82 1078.76L1281.19 1087.52L1276.81 1093.78L1269.3 1105.05L1260.53 1117.57L1255.53 1124.45L1251.14 1130.08L1246.14 1136.97L1241.13 1143.23L1237.37 1148.24L1231.74 1155.12L1227.36 1160.76L1226.73 1162.01H1225.48L1224.23 1164.51L1218.59 1170.77L1209.83 1180.16L1208.58 1182.04H1207.33L1206.08 1184.54L1200.44 1190.8L1194.18 1197.06L1189.17 1201.44L1183.54 1207.08L1179.79 1210.21L1169.14 1220.85L1162.26 1226.48L1152.87 1233.99L1150.37 1235.87H1149.11V1237.12L1142.85 1241.51L1136.59 1247.14L1133.46 1248.39V1249.64L1122.82 1257.16L1116.56 1262.79L1106.55 1269.67L1097.16 1275.93L1088.39 1281.57L1084.64 1284.07L1075.88 1289.08L1069.62 1292.84L1062.73 1296.59L1058.97 1299.09L1055.22 1300.97L1047.71 1305.35L1037.69 1310.36L1023.29 1317.87L1015.16 1321.63L1005.14 1326.01L995.753 1330.39L990.745 1332.9L970.714 1340.41L951.935 1346.67L937.538 1351.05L911.248 1357.94L880.576 1365.45L864.927 1368.58L855.537 1371.08L839.888 1372.96L826.743 1375.46L819.231 1376.09L794.819 1376.71L761.643 1378.59H730.345L707.184 1377.34L688.405 1376.09L674.008 1374.21L663.367 1372.33L649.596 1370.45L633.947 1367.32L627.061 1366.07L620.802 1364.82L608.908 1362.32L591.381 1358.56L580.114 1356.06L574.48 1354.18L561.335 1350.42L551.32 1346.67L528.785 1338.53L515.64 1333.52L506.251 1329.77L488.724 1322.26L469.319 1312.87L459.303 1307.23L450.54 1302.85L441.151 1297.22L427.379 1289.71L416.738 1283.45L410.478 1279.06L403.593 1274.68L394.203 1268.42L385.44 1262.16L376.677 1255.28L360.402 1242.76L350.386 1234.62L345.378 1230.24L341.623 1227.73V1226.48L339.119 1225.23L332.859 1219.6L327.852 1215.22L321.592 1209.58L310.951 1199.57L286.538 1175.15L282.156 1170.15L275.897 1163.26L264.629 1149.49L260.248 1143.86L242.721 1120.07L236.461 1111.31L228.324 1099.41L219.56 1085.64L210.171 1070.62L203.285 1058.72L198.903 1049.96L192.644 1038.69L186.384 1026.8L179.499 1011.78L176.369 1003.64L173.239 997.381L165.728 977.976L165.102 974.846V970.464L166.979 965.456L170.735 960.449L182.628 948.555L187.636 944.174L439.273 692.537L443.654 687.529L449.914 681.269L454.922 676.888L460.555 671.254L461.181 670.002H462.433L463.685 667.498L469.945 661.238L475.578 656.857L479.96 655.605L486.22 656.231L492.479 658.735L500.617 666.246L510.006 675.636L515.014 680.017L707.184 872.188L712.192 876.57L714.696 877.822L721.581 869.684L868.056 723.209L873.064 718.827L880.576 710.69L885.583 705.682L889.965 701.926L893.095 698.796L901.858 689.407L959.447 631.818L963.828 628.062L874.316 627.436L863.675 624.933L857.415 621.803L853.659 614.291L853.033 605.528V572.978L853.659 540.428L857.415 532.916L861.797 529.16L864.927 527.908H1120.94L1127.2 531.038L1130.33 533.542L1133.46 538.55L1134.09 540.428V793.317L1132.21 798.95L1129.08 802.706L1122.82 806.462L1120.94 807.088H1049.59L1042.7 805.21L1037.69 801.454L1034.56 796.446L1033.94 793.943V698.796L1030.81 700.048L1027.05 703.178L1022.67 708.186L1008.9 721.957L1004.52 726.965L987.615 743.866L982.607 748.247L979.478 751.377L973.844 757.637L920.011 811.47L915.003 815.851L908.118 822.737L907.492 823.989H906.24L904.988 826.493L895.599 835.256L886.835 844.646L881.202 849.653L876.82 854.661L844.27 887.211L839.888 890.967L835.506 895.975L827.369 903.486L824.239 907.242L820.483 910.372L817.354 914.127L814.224 917.257L807.964 922.891L803.582 927.899L785.429 946.052L780.422 950.433L771.658 959.823L728.467 1003.01L721.581 1008.65L714.696 1012.4H708.436L703.428 1009.9L697.169 1004.89L489.976 797.698L484.968 793.317L482.464 790.813L479.334 791.439L399.211 871.562H397.959V872.814H396.707L395.455 875.318L378.554 892.219L371.043 899.104L366.661 904.112L282.156 988.617L281.53 989.869V994.877L286.538 1004.89L294.05 1018.04L300.935 1029.93L308.447 1040.57L316.584 1051.84L325.348 1064.36L331.607 1072.5L339.119 1082.51L347.882 1093.15L353.516 1099.41L357.898 1104.42L366.035 1113.18L370.417 1118.19L387.944 1135.72L394.829 1141.35L402.967 1148.86L407.975 1153.25L416.738 1160.76L429.257 1170.15L443.028 1180.16L453.67 1187.67L459.929 1192.06L467.441 1197.06L483.716 1207.7L499.991 1216.47L513.136 1223.35L537.549 1233.99L549.442 1239L576.984 1249.02L596.389 1255.9L608.282 1259.66L627.061 1264.67L652.726 1269.67L682.146 1274.68L694.665 1275.93L729.093 1277.81H767.277L808.59 1275.31L823.613 1273.43L847.4 1269.67L865.553 1265.92L889.339 1259.66L911.248 1253.4L934.408 1245.89L957.569 1236.5L973.218 1228.99L996.379 1217.72L1010.15 1210.21L1022.04 1203.32L1027.68 1200.19L1034.56 1195.81L1042.07 1190.8L1052.09 1183.29L1059.6 1178.28L1070.24 1170.15L1080.26 1162.63L1088.39 1155.75H1089.65V1154.5L1094.65 1150.74L1100.91 1145.11L1107.8 1139.47L1112.81 1134.47H1114.06L1115.31 1131.96L1121.57 1126.33L1132.84 1115.06L1138.47 1108.18L1146.61 1099.41L1150.99 1094.4L1157.25 1086.89L1161.63 1081.26L1167.89 1073.12L1172.9 1065.61H1174.15L1175.4 1062.48L1179.79 1056.85L1184.79 1049.96L1191.68 1039.95L1198.56 1029.3L1205.45 1018.04L1211.71 1008.02L1217.34 998.007L1224.85 983.609L1232.37 967.96L1239.88 950.433L1244.26 937.914L1254.9 905.99L1260.53 885.959L1266.79 860.921L1271.18 838.386L1274.93 812.721L1277.44 786.431L1278.69 763.27V739.484L1276.81 705.682L1274.31 679.391L1269.3 648.093L1264.29 625.559L1260.53 611.161L1256.15 596.138L1248.64 573.604L1243.63 560.458L1236.12 541.054L1232.37 532.916L1226.11 518.519L1221.1 508.503L1214.21 495.358L1206.08 480.961L1200.44 471.572L1191.05 457.8L1183.54 447.159L1170.4 429.632L1164.76 422.747L1157.25 413.357L1150.37 404.594L1145.98 400.212L1141.6 395.204L1133.46 385.815L1127.2 379.555L1122.82 374.547L1112.18 364.532L1104.67 357.02L1099.66 352.639L1089.02 343.875L1082.14 338.242L1070.87 329.478L1061.48 322.592L1052.72 316.333L1042.07 308.821L1034.56 303.814L1017.04 293.172L1006.39 286.913L995.127 280.653L978.852 272.515L958.195 263.126L946.302 258.118L927.523 251.233L896.225 241.217L879.324 236.21L858.667 231.202L829.247 226.82L792.941 222.438L781.674 221.812L742.864 221.186L717.826 221.812L699.047 223.064L687.154 224.316L662.115 228.072L641.458 231.828L618.924 236.836L612.664 238.713L599.519 242.469L583.87 246.851L574.48 249.981L560.083 254.988L542.556 262.5L536.297 265.63L530.663 268.134L515.64 275.019L499.365 283.157L484.968 291.294L473.701 297.554L453.044 310.699L448.036 314.455L436.143 323.218L425.502 331.356L418.616 336.364L409.853 343.875L404.845 348.257L396.707 355.143L389.822 362.028L384.814 366.41L366.661 384.563L362.279 389.57L354.142 398.334L349.76 403.342L344.127 409.601L339.119 415.861L330.355 427.128L323.47 435.892L317.21 444.029L309.073 455.923L300.935 468.442L295.302 477.205L286.538 492.228L280.278 503.496L274.645 514.137L266.507 532.29L259.622 547.939L250.858 571.726L240.843 602.398L235.835 622.429L230.828 644.963L226.446 667.498L223.316 690.033L221.438 711.315L220.812 724.461L220.186 758.263L218.308 769.53L212.675 776.416L202.659 787.057L182.003 807.714L181.377 808.59L179.499 810.218L156.964 832.752L148.827 838.386L143.819 840.264L138.811 839.638L131.926 835.882L127.544 832.126L125.04 825.867L123.162 813.973L121.91 793.943L121.284 774.538V715.071L123.162 685.025L126.918 656.857L131.3 629.94L135.055 613.665L141.941 586.123L145.697 572.978L156.964 539.176L161.972 525.404L166.979 512.259L174.491 493.48L178.247 485.343L185.132 470.946L190.14 460.93L195.148 452.167L200.155 442.151L205.163 433.388L214.553 418.365L223.316 404.594L230.202 395.204L235.835 387.067L240.843 379.555L247.728 370.792L253.362 364.532L260.248 355.768L264.003 351.387L269.637 344.501L276.523 336.99L282.156 330.104L289.042 321.966L299.057 311.325L325.348 285.035L332.233 279.401L348.508 265.63L354.768 260.622L362.279 254.362L370.417 248.103L379.18 241.217L393.578 231.202L412.356 218.683L423.624 211.797L436.143 204.285L450.54 196.148L464.937 189.262L476.83 183.003L494.983 174.239L504.999 169.857L523.152 162.346L538.175 156.712L553.824 151.705L568.847 147.323L578.862 144.193L588.878 141.689L600.771 138.559L619.55 134.178L630.817 131.674L652.1 127.918L682.772 123.536L696.543 122.284L732.849 121.032Z" fill="white"/>
</svg>
